<svg xmlns="http://www.w3.org/2000/svg" viewBox="0 0 428 112" fill="#F6F3EC" role="img" aria-label="Dovod — Grounding"><title>Dovod — Grounding</title><g transform="scale(1.1666667)"><path d="M12 16H30L54 40H62V56H54L30 80H12V64H23L39 48L23 32H12Z"/><path d="M72 40H88V56H72Z"/></g><g transform="translate(116 16) scale(.94)"><path transform="translate(0 0)" d="M40 0H54V80H41V73C36 79 30 82 23 82C8 82 0 71 0 54C0 37 9 26 24 26C31 26 36 29 40 34ZM40 54C40 43 35 38 27 38C19 38 14 44 14 54C14 64 19 70 27 70C35 70 40 64 40 54Z" fill-rule="evenodd"/><path transform="translate(65 0)" d="M27 26C43 26 54 37 54 54C54 71 43 82 27 82C11 82 0 71 0 54C0 37 11 26 27 26ZM27 38C19 38 14 44 14 54C14 64 19 70 27 70C35 70 40 64 40 54C40 44 35 38 27 38Z" fill-rule="evenodd"/><path transform="translate(129 0)" d="M0 28H15L28 65L41 28H56L36 80H20Z" fill-rule="evenodd"/><path transform="translate(194 0)" d="M27 26C43 26 54 37 54 54C54 71 43 82 27 82C11 82 0 71 0 54C0 37 11 26 27 26ZM27 38C19 38 14 44 14 54C14 64 19 70 27 70C35 70 40 64 40 54C40 44 35 38 27 38Z" fill-rule="evenodd"/><path transform="translate(259 0)" d="M40 0H54V80H41V73C36 79 30 82 23 82C8 82 0 71 0 54C0 37 9 26 24 26C31 26 36 29 40 34ZM40 54C40 43 35 38 27 38C19 38 14 44 14 54C14 64 19 70 27 70C35 70 40 64 40 54Z" fill-rule="evenodd"/></g></svg>
